<svg id="Layer_1" data-name="Layer 1" xmlns="http://www.w3.org/2000/svg" viewBox="0 0 56.28 54.02"><defs><style>.cls-1{fill:#fff;}.cls-2{fill:#15397f;}.cls-3{fill:#d59f0f;}</style></defs><title>OA keystone-2c</title><polyline class="cls-1" points="14.15 0.02 42.12 0.02 40.31 7.69 56.27 7.69 46.03 54.02 10.23 54.02 0 7.69 15.96 7.69 14.15 0.02 42.12 0.02"/><g id="OA"><path class="cls-2" d="M301.68,378.36q3,2.09,6.12,9.43l10.69,24.91a21.58,21.58,0,0,0,2.82,5.26,3.68,3.68,0,0,0,2.11,1.28,2.6,2.6,0,0,0,2.06-.62,9.26,9.26,0,0,0,1.12-1.17l8.79-39.36h-16l1.78-7.67h-28l1.55,6.51c.26-.06.4-.11.66-.15A8.27,8.27,0,0,1,301.68,378.36Z" transform="translate(-279.1 -370.43)"/><path class="cls-3" d="M289.1,379.78a13,13,0,0,1,2.79-1.68H279.11l2.34,10.62A32,32,0,0,1,289.1,379.78Z" transform="translate(-279.1 -370.43)"/><path class="cls-3" d="M288.5,420.66l.84,3.77h3.92A14.61,14.61,0,0,1,288.5,420.66Z" transform="translate(-279.1 -370.43)"/><path class="cls-3" d="M299.61,396.23a14.79,14.79,0,0,1,5.34,1l-.09-.18L302,390.41q-1.7-4-3.15-5.22a4.43,4.43,0,0,0-3.33-1.13,7.49,7.49,0,0,0-4,1.83c-3.13,2.5-5.63,6.08-8.05,11.92l1.94,8.8C287,400.19,292.67,396.23,299.61,396.23Z" transform="translate(-279.1 -370.43)"/><path class="cls-3" d="M316.73,421.82a37.54,37.54,0,0,1-3-6.16,14.91,14.91,0,0,1-7.55,8.77h12.51A26.16,26.16,0,0,1,316.73,421.82Z" transform="translate(-279.1 -370.43)"/><circle class="cls-3" cx="20.34" cy="40.69" r="8.09"/></g></svg>